<svg width="51" height="51" viewBox="0 0 51 51" fill="none" xmlns="http://www.w3.org/2000/svg">
<g id="streamline-logos:instagram-logo-2-block">
<path id="Vector" fill-rule="evenodd" clip-rule="evenodd" d="M11.1818 3C9.01186 3 6.93079 3.86201 5.3964 5.3964C3.86201 6.93079 3 9.01186 3 11.1818V39.8182C3 41.9881 3.86201 44.0692 5.3964 45.6036C6.93079 47.138 9.01186 48 11.1818 48H39.8182C41.9881 48 44.0692 47.138 45.6036 45.6036C47.138 44.0692 48 41.9881 48 39.8182V11.1818C48 9.01186 47.138 6.93079 45.6036 5.3964C44.0692 3.86201 41.9881 3 39.8182 3H11.1818ZM10.1591 19.3636C10.1591 16.9224 11.1289 14.5812 12.855 12.855C14.5812 11.1289 16.9224 10.1591 19.3636 10.1591H31.6364C34.0776 10.1591 36.4188 11.1289 38.145 12.855C39.8711 14.5812 40.8409 16.9224 40.8409 19.3636V31.6364C40.8409 34.0776 39.8711 36.4188 38.145 38.145C36.4188 39.8711 34.0776 40.8409 31.6364 40.8409H19.3636C16.9224 40.8409 14.5812 39.8711 12.855 38.145C11.1289 36.4188 10.1591 34.0776 10.1591 31.6364V19.3636ZM19.3636 12.2045C17.4649 12.2045 15.644 12.9588 14.3014 14.3014C12.9588 15.644 12.2045 17.4649 12.2045 19.3636V31.6364C12.2045 33.5351 12.9588 35.356 14.3014 36.6986C15.644 38.0412 17.4649 38.7955 19.3636 38.7955H31.6364C33.5351 38.7955 35.356 38.0412 36.6986 36.6986C38.0412 35.356 38.7955 33.5351 38.7955 31.6364V19.3636C38.7955 17.4649 38.0412 15.644 36.6986 14.3014C35.356 12.9588 33.5351 12.2045 31.6364 12.2045H19.3636ZM35.7273 17.6598C35.7273 18.1119 35.5476 18.5456 35.2279 18.8653C34.9082 19.185 34.4746 19.3647 34.0224 19.3647C33.5702 19.3647 33.1366 19.185 32.8168 18.8653C32.4971 18.5456 32.3175 18.1119 32.3175 17.6598C32.3175 17.2076 32.4971 16.774 32.8168 16.4542C33.1366 16.1345 33.5702 15.9549 34.0224 15.9549C34.4746 15.9549 34.9082 16.1345 35.2279 16.4542C35.5476 16.774 35.7273 17.2076 35.7273 17.6598ZM17.6598 25.5C17.6598 23.4206 18.4858 21.4264 19.9561 19.9561C21.4264 18.4858 23.4206 17.6598 25.5 17.6598C27.5794 17.6598 29.5735 18.4858 31.0439 19.9561C32.5142 21.4264 33.3402 23.4206 33.3402 25.5C33.3402 27.5794 32.5142 29.5735 31.0439 31.0439C29.5735 32.5142 27.5794 33.3402 25.5 33.3402C23.4206 33.3402 21.4264 32.5142 19.9561 31.0439C18.4858 29.5735 17.6598 27.5794 17.6598 25.5ZM25.5 19.7052C23.9631 19.7052 22.4892 20.3157 21.4025 21.4025C20.3157 22.4892 19.7052 23.9631 19.7052 25.5C19.7052 27.0369 20.3157 28.5108 21.4025 29.5975C22.4892 30.6843 23.9631 31.2948 25.5 31.2948C27.0369 31.2948 28.5108 30.6843 29.5975 29.5975C30.6843 28.5108 31.2948 27.0369 31.2948 25.5C31.2948 23.9631 30.6843 22.4892 29.5975 21.4025C28.5108 20.3157 27.0369 19.7052 25.5 19.7052Z" fill="#143963"/>
</g>
</svg>
